<svg width="131" height="135" viewBox="0 0 131 135" fill="none" xmlns="http://www.w3.org/2000/svg">
<path d="M112.69 29.8183C110.947 31.0011 110.447 33.4046 111.362 35.5488C108.873 37.6684 105.907 39.9217 102.44 42.1032C100.51 43.3131 98.6161 44.3827 96.8017 45.3232C96.5777 44.9942 96.3467 44.6653 96.1112 44.3396C94.9655 42.7552 93.7259 41.2799 92.4153 39.9071C92.7764 38.6484 93.322 37.2051 94.1611 35.6995C95.6066 33.0832 97.3927 31.2339 98.8999 29.9833C100.983 31.2306 103.527 30.9932 104.902 29.3014C106.453 27.3947 105.943 24.3678 103.755 22.5455C101.571 20.7195 98.5453 20.7785 96.9943 22.6852C95.584 24.4233 95.8824 27.0909 97.6013 28.9329C96.8015 30.7413 95.3745 33.1061 92.8711 35.0145C91.6389 35.9574 90.4112 36.5816 89.3558 37.0045C87.0781 35.0492 84.6269 33.3701 82.0424 31.9842C82.4042 30.1722 82.9215 28.1546 83.6881 26.0137C84.7945 22.9094 86.1353 20.2914 87.438 18.1657C89.7093 18.7457 91.9976 17.8299 92.8521 15.8583C93.8353 13.5963 92.5422 10.7954 89.9738 9.6039C87.4058 8.41284 84.5221 9.28884 83.541 11.5536C82.6886 13.5186 83.549 15.8934 85.4765 17.2592C84.7973 19.693 83.8021 22.4639 82.307 25.3747C81.2946 27.3573 80.2079 29.0938 79.1584 30.5761C76.6039 29.442 73.9544 28.5777 71.2523 27.9945C70.2779 25.4335 69.4381 22.2274 69.2784 18.5189C69.137 15.0458 69.6219 12.0854 70.2163 9.82094C72.5752 9.68115 74.4925 8.05168 74.6704 5.86108C74.8772 3.37603 72.7843 1.11243 69.988 0.809729C67.198 0.496736 64.7681 2.25817 64.5661 4.74041C64.3882 6.931 65.9881 8.95223 68.2917 9.60555C68.5067 11.9 68.5156 14.9318 67.7844 18.3544C66.9776 22.131 65.5533 25.0729 64.3145 27.1056C61.1401 26.9776 57.9583 27.2215 54.8309 27.856C54.4667 26.6358 54.2116 25.3275 54.1093 23.9342C54.0334 22.826 54.0603 21.7834 54.1531 20.8224C56.4875 20.2761 58.1075 18.2833 57.8744 16.0595C57.6222 13.5703 55.1554 11.7262 52.369 11.9436C49.5822 12.1605 47.5316 14.351 47.7862 16.8435C48.0136 19.0308 49.9479 20.7214 52.3039 20.9503C52.5935 21.9815 52.8416 23.0889 53.0288 24.2651C53.2508 25.6137 53.3757 26.9139 53.4192 28.1685C53.1075 28.2439 52.8031 28.3198 52.4989 28.4055C48.9145 29.3541 45.4315 30.8347 42.1474 32.8579C40.6091 31.8104 39.0278 30.5601 37.4664 29.0603C34.284 25.9972 32.1851 22.8462 30.815 20.3305C32.3869 18.6439 32.6876 16.1741 31.4059 14.4016C29.9289 12.3591 26.9121 12.019 24.6661 13.6431C22.4157 15.2706 21.7891 18.2454 23.2661 20.2879C24.5698 22.0907 27.0743 22.5631 29.1895 21.5323C31.2389 23.5063 33.8035 26.4889 35.84 30.6237C36.7307 32.4479 37.386 34.2236 37.872 35.9085C35.0071 38.2438 32.5638 40.9137 30.5415 43.8313C29.7189 43.4868 28.9103 43.0854 28.0541 42.5415C26.3613 41.462 25.0778 40.2317 24.1202 39.1273C25.1963 36.9174 24.673 34.2923 22.7945 32.9942C20.7266 31.5679 17.8023 32.2921 16.2615 34.6142C14.7252 36.9331 15.1531 39.9709 17.2258 41.3944C19.0127 42.6231 21.4312 42.2505 23.0482 40.6357C24.4004 41.378 25.8547 42.3094 27.3238 43.5001C28.1081 44.1259 28.8209 44.7772 29.4852 45.4378C27.7472 48.223 26.3841 51.2018 25.3933 54.3035C23.6762 54.2797 21.8355 54.1422 19.8886 53.8292C15.4072 53.1073 11.7441 51.6921 9.05969 50.3784C9.28326 48.0311 8.01978 45.8157 5.93899 45.1647C3.55616 44.4209 1.00525 46.0055 0.240671 48.7034C-0.519033 51.3986 0.793154 54.1878 3.17111 54.9344C5.28118 55.5877 7.51096 54.4286 8.53214 52.2861C11.2701 52.6132 15.1349 53.457 19.2702 55.6974C21.1639 56.7203 22.7948 57.8672 24.1969 59.0225C24.0894 59.5905 23.9847 60.1721 23.8985 60.7503C23.4782 63.6569 23.3629 66.6221 23.5733 69.5885C22.6644 69.9082 21.6945 70.201 20.663 70.4468C17.3084 71.2448 14.322 71.329 12.0114 71.1916C11.2931 68.8988 9.24905 67.343 7.09064 67.588C4.64269 67.8625 2.96863 70.3635 3.35469 73.1715C3.73553 75.9819 6.03478 78.0338 8.49146 77.7522C10.6447 77.5096 12.1969 75.5473 12.2799 73.1681C14.4931 72.5212 17.4155 71.9376 20.8722 71.9496C21.9045 71.9534 22.888 72.0138 23.8326 72.1066C24.4419 76.7235 25.8438 81.2994 28.0672 85.6258C26.6182 86.8804 24.9958 88.1532 23.1624 89.3923C20.545 91.1621 18.0126 92.5238 15.7033 93.5827C14.1843 91.5776 11.6259 90.83 9.68885 91.9352C7.55609 93.1521 6.98656 96.1388 8.4129 98.6081C9.84378 101.074 12.7272 102.09 14.8548 100.875C16.7525 99.7921 17.4046 97.3112 16.5253 95.0346C18.6253 93.5813 21.086 92.0918 23.9264 90.7163C25.8962 89.7615 27.7914 88.99 29.6002 88.3477C30.1676 89.2852 30.783 90.203 31.4375 91.1081C32.9918 93.2575 34.7068 95.2182 36.5616 96.9805C35.6897 99.3866 34.2864 102.415 31.9496 105.519C29.9022 108.239 27.7297 110.232 25.8808 111.66C23.8899 110.34 21.3845 110.43 19.9193 112.007C18.2528 113.801 18.5712 116.85 20.6387 118.811C22.7066 120.772 25.7381 120.904 27.4046 119.109C28.8502 117.553 28.8014 115.068 27.4261 113.157C28.8952 111.108 30.7423 108.847 33.0561 106.571C35.7129 103.958 38.3472 101.953 40.6796 100.42C43.6163 102.579 46.797 104.302 50.111 105.588C49.8063 106.725 49.4142 107.912 48.8852 109.139C47.8797 111.485 46.6563 113.377 45.4862 114.873C43.3008 113.954 40.8741 114.535 39.744 116.374C38.461 118.469 39.354 121.415 41.7462 122.945C43.2487 123.905 44.988 124.084 46.3918 123.56C47.2211 123.254 47.9348 122.703 48.4137 121.922C48.552 121.693 48.6708 121.446 48.757 121.193C49.4381 119.306 48.6373 116.995 46.7608 115.595C47.6222 113.843 48.7245 111.927 50.165 109.963C51.0958 108.699 52.0431 107.582 52.975 106.587C54.9155 107.187 56.8972 107.634 58.8871 107.93C59.0746 107.96 59.2667 107.987 59.4488 108.009C59.9697 110.392 60.3733 113.454 60.1955 116.983C60.0199 120.438 59.3464 123.348 58.621 125.584C56.2701 125.572 54.2686 127.057 53.9402 129.211C53.5624 131.67 55.5045 134.069 58.2779 134.569C61.0396 135.072 63.5947 133.484 63.9677 131.028C64.2965 128.893 62.874 126.802 60.6796 125.965C60.7158 123.474 60.9704 120.51 61.6775 117.255C62.4433 113.756 63.5403 110.782 64.6375 108.381C68.3969 108.401 72.1673 107.891 75.82 106.836C76.5187 108.041 77.1994 109.394 77.7976 110.899C79.1036 114.177 79.667 117.154 79.9016 119.475C77.7591 120.44 76.5502 122.647 77.1317 124.78C77.7959 127.198 80.5212 128.607 83.221 127.926C85.9162 127.248 87.5657 124.732 86.9083 122.303C86.3325 120.198 84.2012 118.856 81.8771 118.996C80.9009 116.7 79.9274 113.854 79.2419 110.536C78.9125 108.915 78.6928 107.379 78.5582 105.931C81.2441 104.935 83.8467 103.632 86.3273 101.998C88.1163 103.65 89.999 105.584 91.8635 107.838C94.6391 111.189 96.7058 114.438 98.2387 117.246C96.6776 118.929 96.3813 121.395 97.66 123.163C99.1371 125.206 102.154 125.545 104.409 123.915C106.655 122.291 107.277 119.32 105.8 117.277C104.526 115.516 102.102 115.021 100.02 115.963C97.8142 113.554 95.4036 110.564 93.0659 106.968C91.4905 104.541 90.1864 102.193 89.0998 100.003C91.5422 98.0865 93.6919 95.928 95.5408 93.5828C95.9955 93.7911 96.4558 94.0167 96.919 94.2559C99.9831 95.8272 102.35 97.6664 104.066 99.2663C103.146 101.405 103.679 103.882 105.477 105.135C107.53 106.579 110.462 105.875 112.021 103.569C113.574 101.263 113.171 98.2214 111.113 96.7802C109.289 95.5001 106.775 95.9122 105.143 97.6303C103.169 96.7267 100.491 95.1443 98.0025 92.4386C97.6919 92.1047 97.4004 91.7684 97.1268 91.4283C99.0503 88.632 100.581 85.608 101.713 82.4434C104.036 82.6078 106.606 82.9508 109.363 83.5718C113.604 84.5251 117.183 85.9008 120.008 87.2268C119.8 89.5576 121.061 91.7511 123.128 92.4012C125.514 93.1404 128.06 91.5581 128.824 88.8601C129.585 86.1664 128.274 83.3786 125.894 82.6296C123.835 81.9893 121.649 83.0844 120.604 85.1372C117.469 84.567 113.781 83.6429 109.776 82.1265C107.187 81.1457 104.851 80.0659 102.777 78.9658C103.138 77.5631 103.424 76.1424 103.638 74.7003C103.98 72.3448 104.123 69.9525 104.049 67.5568C106.476 66.6804 109.406 65.8487 112.782 65.3389C116.037 64.8415 118.984 64.7509 121.479 64.8477C122.186 67.0962 124.176 68.6436 126.306 68.4361C128.764 68.204 130.48 65.7329 130.146 62.9206C129.81 60.1049 127.542 58.0193 125.084 58.2514C122.938 58.4556 121.348 60.3755 121.215 62.7342C118.933 63.3243 116.011 63.8313 112.604 63.8304C109.066 63.8307 106.007 63.2987 103.613 62.6633C103.273 60.3879 102.741 58.1223 102.011 55.8902C102.997 55.2287 104.082 54.5786 105.253 53.9802C108.275 52.4357 111.11 51.5887 113.422 51.1159C114.671 53.1585 117.013 54.1617 119.018 53.389C121.31 52.5068 122.311 49.6486 121.254 47.0027C120.193 44.3597 117.481 42.9312 115.184 43.8166C113.172 44.5888 112.154 46.8971 112.657 49.2456C110.697 50.4251 108.022 51.7236 104.686 52.5661C103.421 52.881 102.197 53.0996 101.04 53.2386C100.239 51.2609 99.2798 49.3233 98.1488 47.444C99.7225 46.0943 101.437 44.7199 103.309 43.3611C106.605 40.9626 109.785 39.0346 112.681 37.488C114.346 39.1212 116.764 39.5322 118.505 38.3564C120.534 36.9767 120.879 33.9469 119.267 31.594C117.66 29.2377 114.715 28.4423 112.69 29.8183Z" fill="#FFE1E1"/>
</svg>
