<svg width="191" height="63" viewBox="0 0 191 63" fill="none" xmlns="http://www.w3.org/2000/svg">
<path d="M84.7521 39.19C83.7641 39.19 82.8394 39.019 81.9781 38.677C81.1167 38.3223 80.3631 37.8347 79.7171 37.214C79.0837 36.5933 78.5834 35.8713 78.2161 35.048C77.8614 34.212 77.6841 33.3127 77.6841 32.35C77.6841 31.3747 77.8614 30.4753 78.2161 29.652C78.5834 28.816 79.0901 28.0877 79.7361 27.467C80.3821 26.8463 81.1294 26.365 81.9781 26.023C82.8394 25.6683 83.7641 25.491 84.7521 25.491C85.4867 25.491 86.1961 25.5923 86.8801 25.795C87.5641 25.9977 88.1974 26.2827 88.7801 26.65C89.3754 27.0173 89.8821 27.4607 90.3001 27.98L88.4381 29.823C87.9567 29.2277 87.3994 28.778 86.7661 28.474C86.1454 28.17 85.4741 28.018 84.7521 28.018C84.1567 28.018 83.5994 28.132 83.0801 28.36C82.5607 28.5753 82.1111 28.8793 81.7311 29.272C81.3511 29.652 81.0534 30.108 80.8381 30.64C80.6227 31.1593 80.5151 31.7293 80.5151 32.35C80.5151 32.958 80.6227 33.528 80.8381 34.06C81.0534 34.5793 81.3574 35.0353 81.7501 35.428C82.1427 35.808 82.5987 36.1057 83.1181 36.321C83.6501 36.5363 84.2264 36.644 84.8471 36.644C85.5437 36.644 86.1961 36.4983 86.8041 36.207C87.4121 35.9157 87.9504 35.4977 88.4191 34.953L90.2241 36.739C89.8061 37.2457 89.3057 37.6827 88.7231 38.05C88.1404 38.4173 87.5071 38.7023 86.8231 38.905C86.1517 39.095 85.4614 39.19 84.7521 39.19ZM98.0734 39.209C97.0854 39.209 96.1671 39.038 95.3184 38.696C94.4698 38.3413 93.7224 37.8537 93.0764 37.233C92.4431 36.5997 91.9428 35.8713 91.5754 35.048C91.2208 34.212 91.0434 33.3127 91.0434 32.35C91.0434 31.3873 91.2208 30.4943 91.5754 29.671C91.9428 28.835 92.4431 28.1067 93.0764 27.486C93.7224 26.8527 94.4698 26.365 95.3184 26.023C96.1671 25.6683 97.0854 25.491 98.0734 25.491C99.0614 25.491 99.9798 25.6683 100.828 26.023C101.69 26.365 102.437 26.8527 103.07 27.486C103.716 28.1067 104.217 28.835 104.571 29.671C104.926 30.4943 105.103 31.3873 105.103 32.35C105.103 33.3127 104.926 34.212 104.571 35.048C104.217 35.8713 103.716 36.5997 103.07 37.233C102.437 37.8537 101.69 38.3413 100.828 38.696C99.9798 39.038 99.0614 39.209 98.0734 39.209ZM98.0734 36.682C98.6814 36.682 99.2388 36.5743 99.7454 36.359C100.252 36.131 100.695 35.827 101.075 35.447C101.455 35.0543 101.753 34.592 101.968 34.06C102.184 33.528 102.291 32.958 102.291 32.35C102.291 31.7293 102.184 31.1593 101.968 30.64C101.753 30.108 101.455 29.652 101.075 29.272C100.695 28.8793 100.252 28.5753 99.7454 28.36C99.2388 28.132 98.6814 28.018 98.0734 28.018C97.4781 28.018 96.9271 28.132 96.4204 28.36C95.9138 28.5753 95.4704 28.8793 95.0904 29.272C94.7104 29.652 94.4128 30.108 94.1974 30.64C93.9821 31.1593 93.8744 31.723 93.8744 32.331C93.8744 32.9517 93.9821 33.528 94.1974 34.06C94.4128 34.592 94.7104 35.0543 95.0904 35.447C95.4704 35.827 95.9138 36.131 96.4204 36.359C96.9271 36.5743 97.4781 36.682 98.0734 36.682ZM110.393 39L104.997 25.7H107.98L112.046 36.169L116.207 25.7H119.057L113.585 39H110.393ZM120.186 39V25.7H122.941V39H120.186ZM128.118 36.549H130.436C131.031 36.549 131.582 36.4477 132.089 36.245C132.608 36.0297 133.058 35.732 133.438 35.352C133.831 34.972 134.128 34.5287 134.331 34.022C134.546 33.5153 134.654 32.9643 134.654 32.369C134.654 31.7737 134.546 31.2227 134.331 30.716C134.116 30.1967 133.818 29.747 133.438 29.367C133.058 28.987 132.608 28.6893 132.089 28.474C131.582 28.2587 131.031 28.151 130.436 28.151H128.118V36.549ZM125.363 39V25.7H130.474C131.475 25.7 132.399 25.871 133.248 26.213C134.097 26.5423 134.838 27.011 135.471 27.619C136.104 28.227 136.598 28.9363 136.953 29.747C137.32 30.5577 137.504 31.4317 137.504 32.369C137.504 33.319 137.327 34.193 136.972 34.991C136.617 35.789 136.117 36.492 135.471 37.1C134.838 37.6953 134.097 38.164 133.248 38.506C132.399 38.8353 131.475 39 130.474 39H125.363ZM142.795 34.687V32.483H149.939V34.687H142.795ZM157.542 39V28.341L154.939 29.424V27.144L158.492 25.7H160.145V39H157.542ZM166.769 25.491C167.896 25.491 168.884 25.7697 169.733 26.327C170.594 26.8717 171.259 27.638 171.728 28.626C172.209 29.614 172.45 30.7603 172.45 32.065C172.45 33.4837 172.184 34.7313 171.652 35.808C171.133 36.8847 170.398 37.7207 169.448 38.316C168.498 38.9113 167.39 39.209 166.123 39.209C165.439 39.209 164.749 39.095 164.052 38.867C163.368 38.6263 162.798 38.3097 162.342 37.917L163.748 36.112C164.115 36.4033 164.508 36.6187 164.926 36.758C165.357 36.8973 165.819 36.967 166.313 36.967C167.098 36.967 167.757 36.777 168.289 36.397C168.834 36.0043 169.245 35.4407 169.524 34.706C169.815 33.9587 169.967 33.0657 169.98 32.027C169.537 32.635 169.005 33.11 168.384 33.452C167.776 33.7813 167.124 33.946 166.427 33.946C165.566 33.946 164.799 33.775 164.128 33.433C163.457 33.091 162.931 32.616 162.551 32.008C162.171 31.3873 161.981 30.6843 161.981 29.899C161.981 29.0503 162.184 28.2967 162.589 27.638C163.007 26.9793 163.577 26.46 164.299 26.08C165.034 25.6873 165.857 25.491 166.769 25.491ZM166.845 32.008C167.428 32.008 167.972 31.8877 168.479 31.647C168.998 31.3937 169.454 31.0517 169.847 30.621C169.733 30.013 169.537 29.4873 169.258 29.044C168.979 28.588 168.637 28.2397 168.232 27.999C167.839 27.7457 167.39 27.619 166.883 27.619C166.414 27.619 165.99 27.714 165.61 27.904C165.243 28.094 164.951 28.36 164.736 28.702C164.521 29.0313 164.413 29.4113 164.413 29.842C164.413 30.26 164.514 30.6337 164.717 30.963C164.932 31.2923 165.224 31.552 165.591 31.742C165.958 31.9193 166.376 32.008 166.845 32.008Z" fill="#035755"/>
<path d="M44.9203 31.4997C44.9203 32.5498 45.7716 33.4012 46.8218 33.4012H51.1461C53.3475 33.4012 55.5223 33.9058 57.4877 34.8974C58.0737 35.1931 58.7467 35.3414 59.4582 35.2939C61.3433 35.168 62.8715 33.6348 62.9918 31.7494C63.1331 29.5359 61.38 27.697 59.197 27.697C58.6056 27.697 58.0459 27.832 57.5469 28.0729C55.5442 29.0398 53.3693 29.5984 51.1454 29.5984H46.8218C45.7717 29.5983 44.9203 30.4497 44.9203 31.4997Z" fill="#FB4C47"/>
<path d="M19.154 43.8447C18.5401 43.2308 17.5448 43.2308 16.9309 43.8447L14.4028 46.3728C13.1159 47.6597 11.5495 48.6361 9.82084 49.2054C9.3054 49.3751 8.82528 49.6818 8.43719 50.1255C7.40878 51.3011 7.41161 53.0908 8.44347 54.2634C9.65485 55.6401 11.7547 55.6903 13.031 54.414C13.3766 54.0684 13.6249 53.6622 13.7759 53.2297C14.3814 51.4937 15.3264 49.8957 16.6265 48.5956L19.1541 46.068C19.7678 45.4539 19.7678 44.4586 19.154 43.8447Z" fill="#FB4C47"/>
<path d="M41.9569 21.0433C42.5993 21.6857 43.6408 21.6857 44.2832 21.0433L46.9287 18.3979C48.2754 17.0512 49.9145 16.0295 51.7234 15.4337C52.2627 15.2561 52.7652 14.9351 53.1713 14.4708C54.2474 13.2406 54.2445 11.3678 53.1646 10.1408C51.897 8.7003 49.6996 8.64776 48.3641 9.98318C48.0024 10.3449 47.7426 10.7699 47.5847 11.2225C46.951 13.0391 45.9622 14.7113 44.6018 16.0718L41.9568 18.7168C41.3145 19.3594 41.3145 20.4008 41.9569 21.0433Z" fill="#FB4C47"/>
<path d="M31.499 44.9199C30.4489 44.9199 29.5976 45.7712 29.5976 46.8213V51.1457C29.5976 53.3471 29.093 55.5219 28.1014 57.4873C27.8057 58.0732 27.6574 58.7463 27.7049 59.4577C27.8308 61.3428 29.3639 62.871 31.2493 62.9914C33.4628 63.1326 35.3017 61.3796 35.3017 59.1965C35.3017 58.6052 35.1668 58.0454 34.9258 57.5465C33.9589 55.5438 33.4003 53.3688 33.4003 51.1449V46.8213C33.4004 45.7713 32.5491 44.9199 31.499 44.9199Z" fill="#FFA2A1"/>
<path d="M34.9285 57.5466C33.9616 55.5439 33.4029 53.369 33.4029 51.145V46.8213C33.4029 45.7713 32.5517 44.9199 31.5015 44.9199C30.4513 44.9199 29.6001 45.7712 29.6001 46.8213V51.145C29.6001 53.369 30.1587 55.5438 31.1256 57.5466C31.3665 58.0456 31.5015 58.6053 31.5015 59.1967C31.5015 60.6031 30.7377 61.8301 29.6028 62.488C30.0951 62.7743 30.6558 62.9535 31.252 62.9915C33.4655 63.1328 35.3044 61.3797 35.3044 59.1967C35.3044 58.6053 35.1694 58.0456 34.9285 57.5466Z" fill="#FB4C47"/>
<path d="M17.3091 23.647C20.7395 23.647 23.5203 20.8662 23.5203 17.4358C23.5203 14.0055 20.7395 11.2246 17.3091 11.2246C13.8788 11.2246 11.0979 14.0055 11.0979 17.4358C11.0979 20.8662 13.8788 23.647 17.3091 23.647Z" fill="#FF807E"/>
<path d="M17.3081 11.2246C16.6448 11.2246 16.0062 11.3297 15.4067 11.5223C17.9067 12.3255 19.7165 14.6689 19.7165 17.4358C19.7165 20.2028 17.9067 22.5462 15.4067 23.3494C16.006 23.542 16.6446 23.647 17.3081 23.647C20.7385 23.647 23.5193 20.8662 23.5193 17.4358C23.5193 14.0054 20.7384 11.2246 17.3081 11.2246Z" fill="#FB4C47"/>
<path d="M31.5003 51.7812C42.7014 51.7812 51.7818 42.7009 51.7818 31.4997C51.7818 20.2986 42.7014 11.2183 31.5003 11.2183C20.2991 11.2183 11.2188 20.2986 11.2188 31.4997C11.2188 42.7009 20.2991 51.7812 31.5003 51.7812Z" fill="#FFBFBE"/>
<path d="M31.5015 11.2183C30.8602 11.2183 30.2263 11.2494 29.6001 11.3077C39.9095 12.2665 47.9803 20.94 47.9803 31.4997C47.9803 42.0595 39.9096 50.733 29.6002 51.6918C30.2263 51.75 30.8603 51.7812 31.5016 51.7812C42.7029 51.7812 51.7831 42.701 51.7831 31.4997C51.7831 20.2985 42.7027 11.2183 31.5015 11.2183Z" fill="#FFA2A2"/>
<path d="M39.1036 28.6866C41.3788 28.6866 43.2233 26.8422 43.2233 24.567C43.2233 22.2917 41.3788 20.4473 39.1036 20.4473C36.8283 20.4473 34.9839 22.2917 34.9839 24.567C34.9839 26.8422 36.8283 28.6866 39.1036 28.6866Z" fill="#FFA2A1"/>
<path d="M39.1066 20.4473C38.4205 20.4473 37.7742 20.616 37.2052 20.9126C38.5231 21.5998 39.4235 22.9778 39.4235 24.567C39.4235 26.1561 38.5231 27.5342 37.2052 28.2213C37.7742 28.5179 38.4205 28.6866 39.1066 28.6866C41.3819 28.6866 43.2263 26.8422 43.2263 24.567C43.2263 22.2917 41.3819 20.4473 39.1066 20.4473Z" fill="#FF807E"/>
<path d="M24.2484 42.2112C25.7885 42.2112 27.0371 40.9627 27.0371 39.4225C27.0371 37.8823 25.7885 36.6338 24.2484 36.6338C22.7082 36.6338 21.4597 37.8823 21.4597 39.4225C21.4597 40.9627 22.7082 42.2112 24.2484 42.2112Z" fill="#FF807E"/>
<path d="M45.2972 50.3442C47.3974 50.3442 49.1 48.6417 49.1 46.5415C49.1 44.4413 47.3974 42.7388 45.2972 42.7388C43.197 42.7388 41.4945 44.4413 41.4945 46.5415C41.4945 48.6417 43.197 50.3442 45.2972 50.3442Z" fill="#FB4C47"/>
<path d="M45.2978 42.7388C44.6049 42.7388 43.9559 42.9251 43.3964 43.2488C44.5327 43.9063 45.2978 45.1342 45.2978 46.5416C45.2978 47.949 44.5327 49.1768 43.3964 49.8344C43.9559 50.1582 44.6049 50.3445 45.2978 50.3445C47.3981 50.3445 49.1005 48.6419 49.1005 46.5417C49.1005 44.4416 47.3981 42.7388 45.2978 42.7388Z" fill="#FF807E"/>
<path d="M18.0795 31.4997C18.0795 32.5498 17.2283 33.4012 16.1781 33.4012H11.8538C9.65235 33.4012 7.47752 33.9058 5.51211 34.8974C4.92617 35.1931 4.25311 35.3414 3.54166 35.2939C1.6566 35.168 0.128377 33.6348 0.00803869 31.7494C-0.133218 29.5359 1.61981 27.697 3.80289 27.697C4.39424 27.697 4.95398 27.832 5.45293 28.0729C7.45562 29.0398 9.63057 29.5984 11.8545 29.5984H16.1782C17.2281 29.5983 18.0795 30.4497 18.0795 31.4997Z" fill="#FB4C47"/>
<path d="M31.4989 18.0794C32.549 18.0794 33.4003 17.2282 33.4003 16.178V11.8537C33.4003 9.65229 33.9049 7.47746 34.8966 5.51205C35.1922 4.92611 35.3405 4.25305 35.293 3.5416C35.1671 1.65654 33.634 0.128316 31.7485 0.00797766C29.5351 -0.133279 27.6962 1.61975 27.6962 3.80283C27.6962 4.39418 27.8311 4.95392 28.0721 5.45287C29.039 7.45556 29.5976 9.63051 29.5976 11.8544V16.1781C29.5975 17.2281 30.4488 18.0794 31.4989 18.0794Z" fill="#FFA2A1"/>
<path d="M35.2939 3.54159C35.168 1.65653 33.6349 0.128306 31.7494 0.00796756C30.9619 -0.0423581 30.2226 0.148116 29.5958 0.51147C30.6606 1.13076 31.4049 2.25256 31.491 3.54159C31.5385 4.25304 31.3903 4.9261 31.0946 5.51204C30.103 7.47745 29.5983 9.65228 29.5983 11.8537V16.178C29.5983 17.2281 30.4496 18.0794 31.4998 18.0794C32.55 18.0794 33.4012 17.2282 33.4012 16.178V11.8537C33.4012 9.65228 33.9058 7.47745 34.8974 5.51204C35.1931 4.9261 35.3415 4.25304 35.2939 3.54159Z" fill="#FB4C47"/>
<path d="M59.2006 27.6992C58.6096 27.6992 58.0502 27.8341 57.5515 28.0749C57.4633 28.1175 57.3742 28.1583 57.2854 28.1993C58.4964 28.8925 59.2894 30.2329 59.1926 31.7493C59.1098 33.0462 58.3604 34.1761 57.2871 34.7957C57.3555 34.8288 57.4243 34.8612 57.4922 34.8954C58.0779 35.1908 58.7505 35.3391 59.4616 35.2916C61.3455 35.1657 62.8729 33.6336 62.9931 31.7493C63.1344 29.537 61.3823 27.6992 59.2006 27.6992Z" fill="#FF807E"/>
</svg>
